<svg width="57" height="59" viewBox="0 0 57 59" fill="none" xmlns="http://www.w3.org/2000/svg">
<path d="M34.252 8.63151C37.8607 9.67764 41.0786 11.6395 43.6362 14.2482C46.1942 16.8569 48.095 20.1102 49.0704 23.7417L47.2242 24.2349C46.3348 20.9247 44.6042 17.9604 42.2759 15.5863C39.9414 13.2055 37.0081 11.4159 33.7214 10.4627L34.252 8.63151ZM27.7716 7.79313V0.72591H28.7286V7.79313C29.3118 7.9326 29.827 8.32339 30.2166 8.88086C30.6751 9.53779 30.9596 10.4344 30.9596 11.411V16.1971L31.3403 16.2489C31.3566 16.2514 31.3731 16.2541 31.389 16.2567C31.4688 16.2692 31.5482 16.2827 31.6264 16.2972C34.3631 16.79 36.7923 18.3025 38.6091 20.2536C39.1847 20.8714 39.6987 21.5473 40.142 22.2715L50.4544 27.55L51.4012 32.5887C52.8424 40.259 54.2843 47.9337 55.8664 56.4126L56.2523 58.4819L54.4423 57.4066C51.5203 55.6708 48.8146 54.0495 46.3458 52.5609C43.7455 50.9929 41.2475 49.4734 38.9583 48.0736C38.7859 48.172 38.6091 48.2704 38.4272 48.368C38.1139 48.5361 37.7935 48.6983 37.4662 48.8535C36.0496 49.5252 34.5454 50.0476 32.9738 50.3999C31.4397 50.7436 29.853 50.9256 28.2343 50.9256C26.2754 50.9256 24.3678 50.6602 22.5464 50.1636C20.8108 49.69 19.1664 49.009 17.6422 48.1484L0.248047 58.4819L0.633911 56.4126C2.21604 47.9337 3.65791 40.259 5.09898 32.5887L6.04578 27.55C9.49351 25.7849 12.9411 24.0198 16.3893 22.2555C16.8303 21.5374 17.3412 20.8668 17.9124 20.2536C19.7292 18.3025 22.1587 16.7737 24.8951 16.2809C24.9736 16.2664 25.0527 16.253 25.1324 16.2406C25.1487 16.2378 25.165 16.2353 25.1811 16.2326L25.5406 16.1838V11.411C25.5406 10.4339 25.8252 9.53779 26.2836 8.88086C26.673 8.32339 27.1888 7.933 27.7716 7.79313ZM37.0746 46.9196C32.6396 44.1984 29.5658 42.2759 28.4051 41.5475C27.1254 42.3667 23.7544 44.5172 22.0007 45.5591L19.5663 47.0054C20.6744 47.5511 21.839 47.9953 23.0473 48.3245C24.6902 48.7728 26.4288 49.012 28.2343 49.012C29.7279 49.012 31.1741 48.8482 32.555 48.5387C33.983 48.2185 35.3548 47.7417 36.6512 47.1268C36.7926 47.0599 36.9336 46.9907 37.0746 46.9196ZM49.4808 33.0949C49.041 35.6082 48.1656 37.9723 46.9354 40.1066C45.5007 42.5958 43.5867 44.7703 41.3212 46.5016C41.2044 46.5904 41.0862 46.6794 40.9667 46.7664C40.9154 46.804 40.8409 46.8577 40.7426 46.9268C42.6774 48.1076 44.8741 49.4409 47.3322 50.9237C49.341 52.135 51.4416 53.3958 53.6032 54.6842C52.3355 47.8992 50.95 40.5254 49.5632 33.1426L49.4808 33.0949ZM15.8314 47.0024C15.5902 46.8327 15.36 46.6642 15.1412 46.4966C12.9056 44.7868 11.0151 42.6529 9.59244 40.2166C8.33617 38.0661 7.44164 35.6757 6.99218 33.1294L6.93324 33.1632C5.54724 40.5399 4.16324 47.9072 2.89671 54.6865L15.8314 47.0024ZM8.76178 32.099C9.12191 34.6743 9.98325 37.0929 11.2446 39.2521C12.5443 41.4782 14.2667 43.4242 16.2997 44.9792C16.5541 45.1734 16.8027 45.3554 17.045 45.5231C17.2339 45.6539 17.4347 45.7873 17.6478 45.9233L21.029 43.9146C22.5872 42.989 25.4378 41.1774 26.9243 40.2275C24.4332 39.9267 22.1999 38.7888 20.5142 37.103C18.5344 35.1233 17.3099 32.3881 17.3099 29.3672C17.3099 28.4484 17.424 27.5538 17.6387 26.6978C17.8002 26.054 18.0194 25.4322 18.2892 24.8389C17.5926 24.5495 17.0707 24.341 16.7465 24.2134L16.3752 24.403C15.9626 25.4021 15.6847 26.4705 15.5646 27.5863L15.5555 28.1434L8.76178 32.099ZM38.9587 45.8358C39.125 45.7272 39.3087 45.6025 39.509 45.4622H39.5127C39.5751 45.418 39.6839 45.3399 39.8382 45.2267C39.9467 45.1475 40.0547 45.0662 40.1624 44.984C42.2332 43.4014 43.979 41.4204 45.2834 39.1572C46.5178 37.0162 47.3602 34.6196 47.7124 32.0666L40.966 28.1434L40.9572 27.5863C40.8375 26.4759 40.5616 25.4118 40.1519 24.417L39.764 24.2186C39.4334 24.3549 38.9035 24.574 38.2202 24.8597C38.4761 25.4257 38.6858 26.0196 38.8446 26.6357C39.0702 27.514 39.1903 28.4295 39.1903 29.3672C39.1903 32.3881 37.9658 35.1233 35.986 37.103C34.3594 38.7296 32.2228 39.8467 29.8368 40.1932C31.3168 41.12 34.5044 43.1072 38.9587 45.8358ZM7.40151 23.7292C8.37778 20.1036 10.2766 16.8546 12.8312 14.249C15.3854 11.6438 18.5983 9.68334 22.2018 8.63574L22.7324 10.4671C19.4514 11.4213 16.523 13.2094 14.1914 15.5872C11.8667 17.9587 10.1379 20.918 9.24777 24.2228L7.40151 23.7292ZM41.4123 25.0622C41.6564 25.8396 41.8278 26.6498 41.9176 27.484C41.9176 27.5246 41.9302 27.6112 41.9343 27.6546C41.9467 27.7902 41.9354 27.6655 41.9376 27.6927C41.9396 27.7163 47.2316 30.753 49.3494 32.0049L48.7507 28.8184L41.4123 25.0622ZM39.0966 22.4281C38.7402 21.8897 38.3403 21.3826 37.9019 20.9116C36.327 19.2211 34.2592 17.8452 31.9219 17.3402L31.7768 17.3089L31.6767 17.2889L31.623 17.278L30.9596 17.1888V18.7659C31.9707 19.0237 32.9258 19.4224 33.8027 19.9398C35.1836 20.7547 36.37 21.8656 37.2756 23.1842C38.0931 22.8416 38.7274 22.5799 39.0966 22.4281ZM19.2382 23.1649C20.1291 21.8726 21.2916 20.7816 22.6428 19.973C23.5348 19.4398 24.5088 19.0293 25.5406 18.7659V17.1751L24.8984 17.2617L24.8448 17.2726L24.745 17.2926L24.5995 17.3241C22.2622 17.8291 20.1948 19.2211 18.6199 20.9116C18.1811 21.3826 17.7808 21.8902 17.4244 22.4287C17.7971 22.575 18.4207 22.8239 19.2382 23.1649ZM7.14711 32.0257C9.26177 30.7738 14.5819 27.7163 14.5838 27.6927C14.586 27.6655 14.5747 27.7902 14.5875 27.6546C14.5916 27.6112 14.6038 27.5246 14.6038 27.484C14.6942 26.6451 14.8668 25.8306 15.1136 25.049L7.74964 28.8184L7.14711 32.0257ZM28.2914 39.3504L28.3938 39.2847L28.4935 39.3477C31.1539 39.2839 33.5562 38.1799 35.3095 36.4266C37.1162 34.6203 38.2334 32.1241 38.2334 29.3672C38.2334 28.5001 38.125 27.6638 37.9212 26.8713C37.7107 26.053 37.3966 25.2716 36.9934 24.5418C36.1282 22.9773 34.8548 21.6697 33.3166 20.7619C31.8327 19.8863 30.101 19.3838 28.2502 19.3838C26.3774 19.3838 24.6271 19.8977 23.1323 20.7917C21.5838 21.7181 20.3067 23.0526 19.4495 24.647C19.0667 25.3594 18.7676 26.1247 18.5659 26.9294C18.3704 27.7076 18.2668 28.5243 18.2668 29.3672C18.2668 32.1241 19.3842 34.6203 21.1907 36.4266C22.9974 38.2333 25.4934 39.3507 28.2502 39.3507L28.2914 39.3504ZM30.0031 18.5672V11.411C30.0031 10.63 29.7858 9.92822 29.4354 9.42676C29.1198 8.97422 28.6991 8.69352 28.2502 8.69352C27.8011 8.69352 27.3805 8.97422 27.0649 9.42676C26.7149 9.92822 26.4972 10.63 26.4972 11.411V18.5672C27.0683 18.475 27.6538 18.4269 28.2502 18.4269C28.8466 18.4269 29.432 18.475 30.0031 18.5672Z" fill="white"/>
</svg>
